<svg xmlns="http://www.w3.org/2000/svg" xmlns:xlink="http://www.w3.org/1999/xlink" width="500" zoomAndPan="magnify" viewBox="0 0 375 374.999991" height="500" preserveAspectRatio="xMidYMid meet" version="1.0"><defs><clipPath id="b26c05c0dc"><path d="M 71.328125 0 L 303.828125 0 L 303.828125 375 L 71.328125 375 Z M 71.328125 0 " clip-rule="nonzero"/></clipPath></defs><rect x="-37.5" width="450" fill="#ffffff" y="-37.499999" height="449.999989" fill-opacity="1"/><rect x="-37.5" width="450" fill="#ff7f50" y="-37.499999" height="449.999989" fill-opacity="1"/><g clip-path="url(#b26c05c0dc)"><path fill="#ffffff" d="M 288.289062 208.566406 C 278.039062 192.960938 264.027344 181.917969 246.246094 175.4375 C 259.90625 167.089844 270.492188 156.011719 278.003906 142.195312 C 285.519531 128.382812 289.273438 112.871094 289.273438 95.660156 C 289.273438 77.078125 284.914062 60.117188 276.195312 44.777344 C 267.472656 29.433594 256.277344 18.140625 242.609375 10.894531 C 228.933594 3.644531 210.386719 0.0234375 186.964844 0.0234375 L 95.246094 0.0234375 C 94.464844 0.0234375 93.683594 0.0625 92.902344 0.140625 C 92.121094 0.214844 91.347656 0.332031 90.582031 0.484375 C 89.8125 0.636719 89.054688 0.824219 88.304688 1.054688 C 87.554688 1.28125 86.816406 1.542969 86.09375 1.84375 C 85.371094 2.144531 84.664062 2.480469 83.972656 2.847656 C 83.28125 3.21875 82.609375 3.621094 81.957031 4.054688 C 81.308594 4.488281 80.679688 4.957031 80.074219 5.453125 C 79.46875 5.949219 78.886719 6.476562 78.332031 7.027344 C 77.78125 7.582031 77.253906 8.164062 76.757812 8.769531 C 76.261719 9.375 75.792969 10.003906 75.359375 10.652344 C 74.921875 11.304688 74.519531 11.976562 74.152344 12.667969 C 73.78125 13.359375 73.449219 14.066406 73.148438 14.789062 C 72.847656 15.511719 72.585938 16.25 72.359375 17 C 72.128906 17.75 71.941406 18.507812 71.789062 19.277344 C 71.632812 20.042969 71.519531 20.816406 71.441406 21.597656 C 71.367188 22.378906 71.328125 23.160156 71.328125 23.941406 L 71.328125 52.535156 C 71.328125 53.304688 71.363281 54.074219 71.4375 54.839844 C 71.511719 55.605469 71.625 56.367188 71.769531 57.125 C 71.917969 57.878906 72.101562 58.628906 72.320312 59.367188 C 72.542969 60.101562 72.796875 60.828125 73.085938 61.542969 C 73.375 62.257812 73.699219 62.953125 74.058594 63.636719 C 74.414062 64.320312 74.804688 64.980469 75.226562 65.625 C 75.648438 66.269531 76.097656 66.894531 76.578125 67.496094 C 77.0625 68.097656 77.570312 68.671875 78.109375 69.222656 C 78.644531 69.777344 79.207031 70.300781 79.796875 70.796875 C 80.382812 71.296875 80.992188 71.765625 81.625 72.203125 C 82.261719 72.640625 82.914062 73.046875 83.585938 73.421875 C 84.257812 73.796875 84.945312 74.140625 85.652344 74.449219 C 86.359375 74.757812 87.074219 75.03125 87.808594 75.273438 C 88.539062 75.511719 89.28125 75.714844 90.035156 75.882812 C 90.785156 76.050781 91.542969 76.183594 92.308594 76.277344 C 93.070312 76.371094 93.839844 76.429688 94.609375 76.449219 L 121.171875 77.167969 C 125.613281 58.648438 142.273438 44.882812 162.152344 44.882812 L 228.476562 44.882812 C 232.941406 44.882812 236.738281 48.351562 236.898438 52.8125 C 236.917969 53.367188 236.882812 53.914062 236.792969 54.460938 C 236.703125 55.003906 236.558594 55.535156 236.359375 56.054688 C 236.164062 56.570312 235.914062 57.0625 235.617188 57.527344 C 235.320312 57.996094 234.980469 58.425781 234.597656 58.824219 C 234.214844 59.222656 233.792969 59.578125 233.339844 59.890625 C 232.882812 60.207031 232.402344 60.46875 231.894531 60.6875 C 231.382812 60.902344 230.859375 61.066406 230.316406 61.175781 C 229.773438 61.285156 229.226562 61.34375 228.675781 61.34375 L 170.574219 61.34375 C 166.320312 61.34375 162.695312 64.652344 162.546875 68.902344 C 162.527344 69.429688 162.5625 69.953125 162.648438 70.472656 C 162.734375 70.992188 162.871094 71.496094 163.058594 71.988281 C 163.25 72.480469 163.484375 72.949219 163.765625 73.394531 C 164.050781 73.839844 164.375 74.25 164.738281 74.628906 C 165.105469 75.007812 165.503906 75.347656 165.9375 75.644531 C 166.371094 75.945312 166.832031 76.195312 167.316406 76.402344 C 167.800781 76.609375 168.300781 76.765625 168.816406 76.871094 C 169.332031 76.976562 169.855469 77.027344 170.382812 77.03125 L 228.671875 77.03125 C 229.210938 77.03125 229.746094 77.082031 230.277344 77.1875 C 230.808594 77.292969 231.320312 77.449219 231.820312 77.65625 C 232.320312 77.863281 232.796875 78.117188 233.246094 78.417969 C 233.695312 78.71875 234.109375 79.058594 234.492188 79.441406 C 234.875 79.824219 235.214844 80.242188 235.515625 80.691406 C 235.816406 81.140625 236.066406 81.617188 236.273438 82.113281 C 236.480469 82.613281 236.636719 83.128906 236.742188 83.660156 C 236.847656 84.191406 236.898438 84.726562 236.898438 85.265625 L 236.898438 87.398438 C 236.898438 87.941406 236.847656 88.476562 236.742188 89.003906 C 236.636719 89.535156 236.480469 90.050781 236.273438 90.546875 C 236.066406 91.046875 235.8125 91.519531 235.511719 91.96875 C 235.210938 92.417969 234.871094 92.835938 234.488281 93.21875 C 234.105469 93.597656 233.691406 93.941406 233.242188 94.242188 C 232.792969 94.539062 232.316406 94.792969 231.820312 95 C 231.320312 95.207031 230.804688 95.363281 230.273438 95.46875 C 229.746094 95.574219 229.210938 95.628906 228.667969 95.628906 L 170.574219 95.628906 C 166.320312 95.628906 162.695312 98.9375 162.546875 103.191406 C 162.527344 103.71875 162.558594 104.242188 162.644531 104.761719 C 162.734375 105.28125 162.871094 105.789062 163.058594 106.28125 C 163.246094 106.773438 163.480469 107.242188 163.765625 107.6875 C 164.046875 108.132812 164.371094 108.542969 164.738281 108.925781 C 165.105469 109.304688 165.503906 109.644531 165.9375 109.941406 C 166.375 110.242188 166.832031 110.492188 167.320312 110.699219 C 167.804688 110.90625 168.304688 111.0625 168.820312 111.167969 C 169.339844 111.273438 169.859375 111.324219 170.386719 111.324219 L 228.679688 111.324219 C 229.21875 111.324219 229.753906 111.378906 230.28125 111.484375 C 230.8125 111.589844 231.324219 111.746094 231.824219 111.953125 C 232.324219 112.160156 232.796875 112.414062 233.246094 112.714844 C 233.695312 113.015625 234.109375 113.355469 234.492188 113.738281 C 234.871094 114.121094 235.214844 114.535156 235.511719 114.984375 C 235.8125 115.433594 236.066406 115.90625 236.273438 116.40625 C 236.480469 116.90625 236.636719 117.417969 236.742188 117.949219 C 236.847656 118.476562 236.898438 119.011719 236.898438 119.550781 L 236.898438 120.925781 C 236.898438 121.464844 236.847656 122 236.742188 122.53125 C 236.636719 123.058594 236.480469 123.574219 236.273438 124.074219 C 236.066406 124.574219 235.8125 125.046875 235.511719 125.496094 C 235.210938 125.945312 234.871094 126.363281 234.488281 126.742188 C 234.105469 127.125 233.691406 127.46875 233.242188 127.765625 C 232.792969 128.066406 232.316406 128.320312 231.820312 128.527344 C 231.320312 128.734375 230.804688 128.890625 230.273438 128.996094 C 229.746094 129.101562 229.210938 129.152344 228.667969 129.152344 L 162.152344 129.152344 C 142.4375 129.152344 125.886719 115.617188 121.289062 97.324219 L 94.609375 98.042969 C 93.839844 98.0625 93.070312 98.121094 92.308594 98.214844 C 91.542969 98.308594 90.785156 98.441406 90.035156 98.609375 C 89.28125 98.777344 88.539062 98.980469 87.808594 99.21875 C 87.078125 99.460938 86.359375 99.734375 85.652344 100.042969 C 84.949219 100.351562 84.257812 100.695312 83.585938 101.070312 C 82.914062 101.445312 82.261719 101.851562 81.628906 102.289062 C 80.996094 102.726562 80.386719 103.195312 79.796875 103.695312 C 79.210938 104.191406 78.648438 104.714844 78.109375 105.265625 C 77.570312 105.820312 77.0625 106.394531 76.582031 106.996094 C 76.101562 107.597656 75.648438 108.21875 75.226562 108.863281 C 74.804688 109.507812 74.417969 110.171875 74.058594 110.855469 C 73.703125 111.535156 73.378906 112.234375 73.089844 112.949219 C 72.796875 113.660156 72.542969 114.386719 72.324219 115.125 C 72.101562 115.863281 71.917969 116.609375 71.773438 117.367188 C 71.625 118.121094 71.511719 118.882812 71.4375 119.648438 C 71.363281 120.414062 71.328125 121.183594 71.328125 121.953125 L 71.328125 242.652344 C 71.328125 243.421875 71.363281 244.191406 71.4375 244.957031 C 71.511719 245.722656 71.625 246.484375 71.773438 247.238281 C 71.917969 247.996094 72.101562 248.742188 72.324219 249.480469 C 72.542969 250.21875 72.796875 250.945312 73.085938 251.65625 C 73.378906 252.371094 73.699219 253.070312 74.058594 253.75 C 74.414062 254.433594 74.804688 255.097656 75.226562 255.742188 C 75.648438 256.386719 76.097656 257.007812 76.582031 257.609375 C 77.0625 258.210938 77.570312 258.785156 78.109375 259.339844 C 78.644531 259.890625 79.207031 260.414062 79.796875 260.910156 C 80.382812 261.410156 80.996094 261.878906 81.628906 262.316406 C 82.261719 262.753906 82.914062 263.160156 83.585938 263.535156 C 84.257812 263.910156 84.949219 264.253906 85.652344 264.5625 C 86.359375 264.871094 87.078125 265.144531 87.808594 265.386719 C 88.539062 265.625 89.28125 265.828125 90.035156 265.996094 C 90.785156 266.164062 91.542969 266.292969 92.308594 266.390625 C 93.070312 266.484375 93.839844 266.542969 94.609375 266.5625 L 119.71875 267.238281 C 124.214844 248.988281 140.699219 235.449219 160.332031 235.449219 C 189.972656 235.449219 236.910156 254.101562 236.910156 277.207031 C 236.910156 300.308594 188.753906 319.113281 160.332031 319.113281 C 140.746094 319.113281 124.308594 305.652344 119.753906 287.472656 L 94.609375 288.152344 C 93.839844 288.171875 93.070312 288.230469 92.308594 288.324219 C 91.542969 288.417969 90.785156 288.550781 90.035156 288.71875 C 89.285156 288.886719 88.542969 289.089844 87.808594 289.328125 C 87.078125 289.570312 86.359375 289.84375 85.65625 290.152344 C 84.949219 290.460938 84.261719 290.804688 83.589844 291.179688 C 82.917969 291.554688 82.265625 291.960938 81.632812 292.402344 C 81 292.839844 80.390625 293.308594 79.800781 293.804688 C 79.214844 294.300781 78.652344 294.828125 78.113281 295.378906 C 77.578125 295.929688 77.066406 296.507812 76.585938 297.105469 C 76.105469 297.707031 75.652344 298.332031 75.234375 298.976562 C 74.8125 299.621094 74.421875 300.28125 74.066406 300.964844 C 73.707031 301.648438 73.386719 302.34375 73.09375 303.058594 C 72.804688 303.769531 72.550781 304.496094 72.332031 305.234375 C 72.109375 305.972656 71.925781 306.71875 71.78125 307.476562 C 71.632812 308.230469 71.519531 308.992188 71.449219 309.757812 C 71.375 310.523438 71.335938 311.292969 71.335938 312.0625 L 71.335938 351.050781 C 71.335938 351.835938 71.375 352.617188 71.449219 353.398438 C 71.527344 354.175781 71.640625 354.949219 71.792969 355.71875 C 71.949219 356.488281 72.136719 357.246094 72.363281 357.996094 C 72.589844 358.746094 72.855469 359.480469 73.15625 360.207031 C 73.453125 360.929688 73.789062 361.636719 74.15625 362.328125 C 74.527344 363.019531 74.929688 363.691406 75.363281 364.339844 C 75.796875 364.992188 76.265625 365.621094 76.761719 366.226562 C 77.257812 366.832031 77.785156 367.410156 78.335938 367.964844 C 78.890625 368.519531 79.46875 369.046875 80.074219 369.542969 C 80.679688 370.039062 81.308594 370.507812 81.960938 370.941406 C 82.613281 371.375 83.28125 371.777344 83.972656 372.148438 C 84.664062 372.519531 85.371094 372.851562 86.09375 373.152344 C 86.816406 373.453125 87.554688 373.714844 88.304688 373.945312 C 89.054688 374.171875 89.8125 374.363281 90.582031 374.515625 C 91.347656 374.667969 92.121094 374.785156 92.902344 374.859375 C 93.683594 374.9375 94.464844 374.976562 95.246094 374.976562 L 188.519531 374.976562 C 215.636719 374.976562 236.957031 371.097656 252.476562 363.335938 C 267.992188 355.578125 280.40625 343.128906 289.710938 325.984375 C 299.007812 308.839844 303.65625 288.933594 303.65625 266.261719 C 303.660156 243.402344 298.539062 224.171875 288.289062 208.566406 Z M 288.289062 208.566406 " fill-opacity="1" fill-rule="nonzero"/></g></svg>